<svg width="40" height="40" viewBox="0 0 40 40" fill="none" xmlns="http://www.w3.org/2000/svg">
<g clip-path="url(#clip0_401_2166)">
<path fill-rule="evenodd" clip-rule="evenodd" d="M35 2.5H5C4.33696 2.5 3.70107 2.76339 3.23223 3.23223C2.76339 3.70107 2.5 4.33696 2.5 5V35C2.5 35.663 2.76339 36.2989 3.23223 36.7678C3.70107 37.2366 4.33696 37.5 5 37.5H35C35.663 37.5 36.2989 37.2366 36.7678 36.7678C37.2366 36.2989 37.5 35.663 37.5 35V5C37.5 4.33696 37.2366 3.70107 36.7678 3.23223C36.2989 2.76339 35.663 2.5 35 2.5ZM5 0C3.67392 0 2.40215 0.526784 1.46447 1.46447C0.526784 2.40215 0 3.67392 0 5L0 35C0 36.3261 0.526784 37.5979 1.46447 38.5355C2.40215 39.4732 3.67392 40 5 40H35C36.3261 40 37.5979 39.4732 38.5355 38.5355C39.4732 37.5979 40 36.3261 40 35V5C40 3.67392 39.4732 2.40215 38.5355 1.46447C37.5979 0.526784 36.3261 0 35 0L5 0Z" fill="black"/>
<path fill-rule="evenodd" clip-rule="evenodd" d="M30.0003 20.0006C30.0003 20.3321 29.8686 20.6501 29.6342 20.8845C29.3997 21.1189 29.0818 21.2506 28.7503 21.2506H14.2678L19.6353 26.6156C19.7515 26.7318 19.8437 26.8698 19.9066 27.0216C19.9695 27.1735 20.0019 27.3362 20.0019 27.5006C20.0019 27.665 19.9695 27.8277 19.9066 27.9796C19.8437 28.1314 19.7515 28.2694 19.6353 28.3856C19.5191 28.5018 19.3811 28.594 19.2292 28.6569C19.0774 28.7198 18.9146 28.7522 18.7503 28.7522C18.5859 28.7522 18.4232 28.7198 18.2713 28.6569C18.1195 28.594 17.9815 28.5018 17.8653 28.3856L10.3653 20.8856C10.2489 20.7695 10.1565 20.6315 10.0935 20.4797C10.0305 20.3278 9.99805 20.165 9.99805 20.0006C9.99805 19.8362 10.0305 19.6734 10.0935 19.5215C10.1565 19.3697 10.2489 19.2317 10.3653 19.1156L17.8653 11.6156C18.1 11.3809 18.4183 11.249 18.7503 11.249C19.0822 11.249 19.4006 11.3809 19.6353 11.6156C19.87 11.8503 20.0019 12.1687 20.0019 12.5006C20.0019 12.8325 19.87 13.1509 19.6353 13.3856L14.2678 18.7506H28.7503C29.0818 18.7506 29.3997 18.8823 29.6342 19.1167C29.8686 19.3511 30.0003 19.6691 30.0003 20.0006Z" fill="black"/>
</g>
<defs>
<clipPath id="clip0_401_2166">
<rect width="40" height="40" fill="white"/>
</clipPath>
</defs>
</svg>
